<svg xmlns="http://www.w3.org/2000/svg" xmlns:xlink="http://www.w3.org/1999/xlink" xml:space="preserve" version="1.1" style="shape-rendering:geometricPrecision;text-rendering:geometricPrecision;image-rendering:optimizeQuality;" viewBox="0 0 341 426.25" x="0px" y="0px" fill-rule="evenodd" clip-rule="evenodd"><defs><style type="text/css">
   
    .fil1 {fill:black}
    .fil0 {fill:black;fill-rule:nonzero}
   
  </style></defs><g><path class="fil0" d="M171 0c94,0 170,76 170,171 0,94 -76,170 -170,170 -27,0 -53,-6 -76,-17l-55 11 0 0c-22,4 -37,-22 -22,-39l18 -21c-23,-30 -36,-66 -36,-104 0,-95 76,-171 171,-171zm0 24c-82,0 -147,65 -147,147 0,36 13,70 36,97l2 2c3,3 3,8 0,11l-26 30 58 -12 8 2c21,11 45,16 69,16 81,0 146,-65 146,-146 0,-82 -65,-147 -146,-147z"/><path class="fil0" d="M108 111c5,-12 13,-22 24,-29 26,-17 61,-14 83,7 25,24 27,63 3,88 -8,8 -18,15 -29,18l0 11 -40 0 0 -22c0,-13 10,-24 23,-26 7,0 13,-3 17,-8 9,-9 8,-23 -1,-32 -9,-9 -24,-10 -34,-3 -5,3 -8,7 -10,11l-36 -15z"/><path class="fil1" d="M170 212c14,0 25,11 25,25 0,13 -11,24 -25,24 -13,0 -24,-11 -24,-24 0,-14 11,-25 24,-25z"/></g><text x="0" y="356" fill="#000000" font-size="5px" font-weight="bold" font-family="'Helvetica Neue', Helvetica, Arial-Unicode, Arial, Sans-serif">Created by James Kopina</text><text x="0" y="361" fill="#000000" font-size="5px" font-weight="bold" font-family="'Helvetica Neue', Helvetica, Arial-Unicode, Arial, Sans-serif">from the Noun Project</text></svg>